<?xml version="1.0" standalone="no"?>
<!DOCTYPE svg PUBLIC "-//W3C//DTD SVG 20010904//EN"
 "http://www.w3.org/TR/2001/REC-SVG-20010904/DTD/svg10.dtd">
<svg version="1.0" xmlns="http://www.w3.org/2000/svg"
 width="1200.000000pt" height="1200.000000pt" viewBox="0 0 1200.000000 1200.000000"
 preserveAspectRatio="xMidYMid meet">
<metadata>
Created by potrace 1.15, written by Peter Selinger 2001-2017
</metadata>
<g transform="translate(0.000000,1200.000000) scale(0.100000,-0.100000)"
fill="#000000" stroke="none">
<path d="M5473 7137 l-63 -10 0 -403 0 -403 56 -11 c31 -7 98 -12 149 -13 84
0 99 3 151 29 105 52 153 160 140 312 -9 116 -53 195 -129 233 -35 19 -53 21
-124 16 l-83 -5 0 134 c0 121 -2 134 -17 133 -10 -1 -46 -6 -80 -12z m242
-418 c41 -49 45 -161 10 -230 -20 -37 -67 -61 -113 -57 l-37 3 -3 152 -3 152
28 7 c16 3 32 7 38 8 24 6 57 -9 80 -35z"/>
<path d="M6977 7124 c-54 -29 -64 -109 -18 -155 49 -49 131 -35 156 25 40 96
-48 179 -138 130z"/>
<path d="M3924 6968 c3 -51 8 -151 11 -223 7 -154 23 -381 31 -413 4 -21 9
-23 70 -20 l65 3 46 140 c25 77 48 143 52 148 4 4 28 -60 55 -143 l47 -150 68
0 68 0 6 88 c6 82 21 351 31 565 l5 97 -79 0 -80 0 1 -87 c0 -49 4 -167 9
-263 4 -96 7 -176 6 -177 -2 -2 -17 50 -35 115 -18 64 -35 125 -37 135 -4 14
-17 17 -63 17 l-58 0 -41 -137 -42 -138 6 268 6 267 -76 0 -77 0 5 -92z"/>
<path d="M6090 6995 l0 -65 95 0 95 0 0 -310 0 -310 80 0 80 0 0 310 0 310 95
0 95 0 0 65 0 65 -270 0 -270 0 0 -65z"/>
<path d="M4873 6889 c-91 -17 -156 -70 -197 -159 -30 -67 -29 -217 3 -283 29
-60 89 -111 155 -133 60 -21 176 -23 259 -5 l59 13 -7 46 c-12 87 -16 94 -39
87 -69 -21 -143 -27 -183 -16 -51 14 -103 56 -103 82 0 18 9 19 180 19 l180 0
0 78 c-1 127 -41 207 -125 246 -58 28 -122 37 -182 25z m123 -163 c19 -19 34
-43 34 -55 0 -20 -5 -21 -105 -21 -113 0 -117 2 -94 53 14 32 57 56 98 57 24
0 42 -9 67 -34z"/>
<path d="M7625 6877 l-50 -12 -3 -378 -2 -377 80 0 80 0 0 100 0 101 38 -8
c56 -11 137 -6 170 11 80 42 126 140 126 276 1 133 -38 218 -121 267 -44 26
-58 28 -158 30 -60 1 -132 -3 -160 -10z m202 -127 c48 -17 78 -80 77 -165 -1
-116 -47 -168 -131 -148 l-38 9 -3 151 c-2 138 -1 152 15 156 31 8 49 7 80 -3z"/>
<path d="M6820 6815 l0 -65 73 0 74 0 6 -154 c8 -219 36 -273 155 -296 55 -10
159 2 196 23 20 11 21 16 13 75 -8 59 -11 63 -30 57 -63 -19 -100 -25 -123
-19 -46 12 -54 52 -54 259 l0 185 -155 0 -155 0 0 -65z"/>
</g>
</svg>
