<?xml version="1.0" encoding="utf-8"?>
<!-- Generator: Adobe Illustrator 22.1.0, SVG Export Plug-In . SVG Version: 6.00 Build 0)  -->
<svg version="1.1" id="Layer_1" xmlns="http://www.w3.org/2000/svg" xmlns:xlink="http://www.w3.org/1999/xlink" x="0px" y="0px"
	 viewBox="0 0 300 57" style="enable-background:new 0 0 300 57;" xml:space="preserve">
<style type="text/css">
	.st0{fill:none;}
	.st1{fill:#231F20;}
</style>
<g>
	<rect x="-100" y="2" class="st0" width="500" height="57"/>
	<path class="st1" d="M21.9,54.7c-0.3,0.2-0.6,0.4-1,0.5s-0.8,0.2-1.2,0.2h-8.3c-0.8,0-1.5-0.3-2.1-0.8s-1-1.2-1.3-2l-3.2-8.7
		c-0.6-1.6-0.9-2.9-1-4.1c-0.1-1.2-0.2-2.5-0.2-3.9V11.8c0-0.5,0.1-1,0.2-1.4s0.4-0.7,0.7-0.9l8.1-6.9c0.2-0.2,0.5-0.3,0.9-0.4
		C13.9,2.1,14.2,2,14.7,2h9.7c1,0,1.7,0.2,2.2,0.7s0.7,1.2,0.7,2.2v16.4l3.5-3c0.3-0.3,0.7-0.5,1.2-0.6s1-0.2,1.6-0.2h0.9v-5.8
		c0-0.5,0.1-1,0.2-1.4s0.3-0.7,0.6-0.9l0.1-0.1l8.2-6.9c0.2-0.2,0.5-0.3,0.8-0.4s0.7-0.2,1.2-0.2H55c1,0,1.7,0.2,2.2,0.7
		s0.7,1.2,0.7,2.2v24.4c0,1.4-0.1,2.7-0.2,3.9c-0.1,1.2-0.5,2.6-1,4.1l-3.1,8.6c-0.1,0.4-0.3,0.8-0.5,1.1s-0.5,0.7-0.8,0.9l-8.1,6.7
		c-0.3,0.3-0.5,0.4-0.8,0.6c-0.3,0.1-0.6,0.2-1,0.2H34c-0.8,0-1.6-0.2-2.2-0.6c-0.6-0.4-1.1-1-1.3-1.8l-1.3-4.5L21.9,54.7z
		 M45.5,2.6c-0.8,0-1.4,0.2-1.7,0.5c-0.4,0.4-0.5,0.9-0.5,1.7V28l-3.7-7.9c-0.3-0.7-0.8-1.2-1.3-1.5s-1.2-0.4-2-0.4h-2.6
		c-0.8,0-1.5,0.1-2,0.4s-1,0.8-1.3,1.5L26.7,28V4.9c0-0.8-0.2-1.4-0.5-1.7c-0.4-0.4-0.9-0.5-1.7-0.5h-9.7c-0.8,0-1.4,0.2-1.7,0.5
		c-0.4,0.4-0.5,0.9-0.5,1.7v24.3c0,1.3,0.1,2.6,0.2,3.7c0.1,1.2,0.4,2.5,1,4.1l3.1,8.7c0.2,0.7,0.6,1.2,1,1.6
		c0.5,0.4,1.1,0.6,1.7,0.6h8.3c0.7,0,1.2-0.2,1.7-0.5s0.8-0.8,0.9-1.4l3-10.3c0.1-0.4,0.3-0.7,0.5-0.9c0.2-0.1,0.4-0.2,0.7-0.2h0.6
		c0.3,0,0.5,0.1,0.7,0.2c0.2,0.1,0.3,0.4,0.5,0.9L39.4,46c0.2,0.7,0.5,1.2,1.1,1.4c0.5,0.3,1.2,0.4,1.8,0.4h8.4
		c0.7,0,1.2-0.2,1.6-0.7c0.4-0.4,0.7-1,0.9-1.6l3.1-8.6c0.5-1.6,0.9-2.9,1-4.1c0.1-1.2,0.2-2.4,0.2-3.7V4.9c0-0.8-0.2-1.4-0.5-1.7
		c-0.4-0.4-0.9-0.5-1.7-0.5h-9.8V2.6z M35.7,26.3c0.7,0,1.2,0.2,1.6,0.6c0.4,0.4,0.9,1.2,1.5,2.4l5.8,11.6c0.2,0.4,0.5,0.7,0.8,0.8
		s0.6,0.1,0.9,0.1h0.3c0.3,0,0.7-0.1,0.9-0.4c0.3-0.3,0.5-0.6,0.5-0.9l1.6-7.2c0.2-0.8,0.3-1.8,0.3-3.1c0-1.3,0-2.4,0-3.3V8.3h0.6
		v18.6c0,0.9,0,2,0,3.3s-0.1,2.3-0.3,3.1l-1.6,7.1c-0.2,0.7-0.4,1.2-0.8,1.5c-0.4,0.3-0.8,0.5-1.3,0.5h-0.4c-0.4,0-0.8-0.1-1.2-0.2
		c-0.4-0.1-0.7-0.4-0.9-0.9l-5.8-11.7c-0.5-1.1-1-1.8-1.3-2.1c-0.3-0.3-0.8-0.5-1.3-0.5H34c-0.5,0-0.9,0.2-1.3,0.5
		c-0.3,0.3-0.8,1.1-1.3,2.1l-5.8,11.7c-0.2,0.4-0.5,0.7-0.9,0.9c-0.4,0.1-0.8,0.2-1.2,0.2h-0.4c-0.5,0-0.9-0.2-1.3-0.5
		s-0.6-0.8-0.8-1.5l-1.6-7.1c-0.2-0.8-0.3-1.8-0.3-3.1c0-1.3,0-2.4,0-3.3V8.3h0.6v18.5c0,0.9,0,2,0,3.3s0.1,2.3,0.3,3.1l1.6,7.2
		c0,0.3,0.2,0.6,0.5,0.9c0.3,0.3,0.6,0.4,0.9,0.4h0.3c0.3,0,0.6,0,0.9-0.1s0.6-0.3,0.8-0.8l5.8-11.6c0.6-1.2,1.1-2,1.5-2.4
		s0.9-0.6,1.6-0.6L35.7,26.3L35.7,26.3z"/>
	<path class="st1" d="M95,55.5H65.8c-1,0-1.7-0.2-2.2-0.7s-0.7-1.2-0.7-2.2V11.8c0-0.5,0.1-1,0.2-1.4c0.1-0.4,0.4-0.7,0.7-0.9
		l8.1-6.9c0.2-0.2,0.5-0.3,0.9-0.4C73.2,2.1,73.5,2,74,2h29.2c1,0,1.7,0.2,2.2,0.7s0.7,1.2,0.7,2.2v7.4c0,0.5-0.1,1-0.2,1.4
		c-0.1,0.4-0.4,0.7-0.7,0.9l-5.4,4.5c0.4,0.2,0.7,0.5,0.9,0.9s0.3,1,0.3,1.6v6.7c0,0.5-0.1,1-0.2,1.4c-0.1,0.4-0.4,0.7-0.7,0.9
		l-5.6,4.7h8.7c1,0,1.7,0.2,2.2,0.7s0.7,1.2,0.7,2.2v7.4c0,0.5-0.1,1-0.2,1.4c-0.1,0.4-0.4,0.7-0.7,0.9L97,54.7
		c-0.2,0.2-0.4,0.3-0.8,0.4C95.8,55.4,95.4,55.5,95,55.5z M103.1,48c0.8,0,1.4-0.2,1.7-0.5c0.4-0.4,0.5-0.9,0.5-1.7v-7.4
		c0-0.8-0.2-1.4-0.5-1.7c-0.4-0.4-0.9-0.5-1.7-0.5H85.7v-5.4H98c0.8,0,1.4-0.2,1.7-0.5c0.4-0.4,0.5-0.9,0.5-1.7v-6.7
		c0-0.8-0.2-1.4-0.5-1.7c-0.4-0.4-0.9-0.5-1.7-0.5H85.7v-4.9h17.4c0.8,0,1.4-0.2,1.7-0.5c0.4-0.4,0.5-0.9,0.5-1.7V4.9
		c0-0.8-0.2-1.4-0.5-1.7c-0.4-0.4-0.9-0.5-1.7-0.5H73.9c-0.8,0-1.4,0.2-1.7,0.5c-0.4,0.4-0.5,0.9-0.5,1.7v40.8
		c0,0.8,0.2,1.4,0.5,1.7c0.4,0.4,0.9,0.5,1.7,0.5L103.1,48L103.1,48z M99.7,41.7v0.6H78.5v-34h21.2v0.6H79.1v15.8h15.5v0.6H79.1
		v16.3h20.6V41.7z"/>
	<path class="st1" d="M113.3,55.5c-1,0-1.7-0.2-2.2-0.7s-0.7-1.2-0.7-2.2V11.8c0-0.5,0.1-1,0.2-1.4c0.1-0.4,0.4-0.7,0.7-0.9l8.1-6.9
		c0.2-0.2,0.5-0.3,0.9-0.4c0.4-0.1,0.7-0.2,1.2-0.2h20.1c4.4,0,7.6,0.9,9.6,2.6c2.1,1.7,3.1,4.3,3.1,7.7v3c0,1.5-0.2,2.7-0.6,3.8
		c-0.4,1.1-1,1.9-1.8,2.5l-0.2,0.1c2.3,0.5,4,1.6,5.1,3.2c1.1,1.7,1.7,4,1.7,6.9v5.8c0,1.9-0.3,3.5-0.8,4.9s-1.4,2.5-2.5,3.4
		l-8.1,6.9c-1.1,0.9-2.4,1.5-4,2c-1.6,0.4-3.5,0.7-5.6,0.7C137.5,55.5,113.3,55.5,113.3,55.5z M145.6,48c4.2,0,7.2-0.8,9.2-2.5
		c2-1.7,3-4.3,3-7.8v-5.8c0-3.1-0.7-5.4-2-7c-1.3-1.6-3.3-2.5-6-2.8c1.3-0.5,2.2-1.4,2.8-2.5s0.9-2.6,0.9-4.3v-3c0-3.3-1-5.7-3-7.3
		s-5-2.4-9.1-2.4h-20.1c-0.8,0-1.4,0.2-1.7,0.5c-0.4,0.4-0.5,0.9-0.5,1.7v40.8c0,0.8,0.2,1.4,0.5,1.7c0.4,0.4,0.9,0.5,1.7,0.5h24.3
		V48z M143.1,42.3h-16.9v-34H139c1.7,0,3.1,0.2,4.2,0.5c1.1,0.4,1.9,0.8,2.5,1.4c0.6,0.6,1,1.3,1.2,2.1s0.3,1.7,0.3,2.6v4
		c0,1.3-0.2,2.4-0.7,3.5c-0.4,1.1-1.6,1.8-3.4,2.3c1.7,0,3.1,0.2,4.2,0.5c1.1,0.4,1.9,0.9,2.5,1.5c0.6,0.7,1,1.4,1.2,2.3
		s0.3,1.8,0.3,2.9v4c0,0.9-0.1,1.8-0.3,2.6s-0.6,1.4-1.2,2c-0.6,0.5-1.4,1-2.5,1.3C146.3,42.2,144.8,42.3,143.1,42.3z M138.9,8.9
		h-12.2v15.8h12.2c1.7,0,3.1-0.2,4.1-0.5s1.8-0.7,2.3-1.3c0.5-0.5,0.9-1.1,1-1.8c0.1-0.7,0.2-1.4,0.2-2.2v-4c0-1.7-0.5-3.1-1.4-4.3
		C144.1,9.5,142.1,8.9,138.9,8.9z M143.1,25.4h-16.4v16.3H143c3.1,0,5.2-0.5,6.2-1.5s1.4-2.4,1.4-4.1v-4c0-1.9-0.5-3.5-1.4-4.7
		C148.3,26,146.3,25.4,143.1,25.4z M133.3,13.3h5.4c0.8,0,1.4,0.2,1.8,0.6c0.4,0.4,0.6,1.1,0.6,1.9v1.8c0,0.8-0.2,1.5-0.6,1.9
		c-0.4,0.4-1,0.6-1.8,0.6h-5.4V13.3z M133.3,29.8h8.2c0.8,0,1.4,0.2,1.8,0.6c0.4,0.4,0.6,1,0.6,1.9v2.5c0,0.8-0.2,1.5-0.6,1.9
		c-0.4,0.4-1,0.6-1.8,0.6h-8.2V29.8z"/>
	<path class="st1" d="M182.8,55.5h-10.2c-1,0-1.7-0.2-2.2-0.7s-0.7-1.2-0.7-2.2V22.3h-8.6c-1,0-1.7-0.2-2.2-0.7s-0.7-1.2-0.7-2.2
		v-7.6c0-0.5,0.1-1,0.2-1.4s0.4-0.7,0.7-0.9l8.1-6.9c0.2-0.2,0.5-0.3,0.8-0.4c0.4-0.1,0.7-0.2,1.2-0.2h33.3c1,0,1.7,0.2,2.2,0.7
		s0.7,1.2,0.7,2.2v7.6c0,0.5-0.1,1-0.2,1.4s-0.4,0.7-0.7,0.9l-8.2,6.8c-0.2,0.2-0.4,0.3-0.8,0.4s-0.7,0.2-1.2,0.2h-0.5v23.4
		c0,0.5-0.1,1-0.2,1.4s-0.4,0.7-0.7,0.9l-8.2,6.8c-0.2,0.2-0.4,0.3-0.8,0.4S183.2,55.5,182.8,55.5z M190.9,48c0.8,0,1.4-0.2,1.7-0.5
		c0.4-0.4,0.5-0.9,0.5-1.7v-31h9.3c0.8,0,1.4-0.2,1.7-0.5c0.4-0.4,0.5-0.9,0.5-1.7V4.9c0-0.8-0.2-1.4-0.5-1.7
		c-0.4-0.4-0.9-0.5-1.7-0.5h-33.3c-0.8,0-1.4,0.2-1.7,0.5c-0.4,0.4-0.5,0.9-0.5,1.7v7.6c0,0.8,0.2,1.4,0.5,1.7
		c0.4,0.4,0.9,0.5,1.7,0.5h9.3v30.9c0,0.8,0.2,1.4,0.5,1.7c0.4,0.4,0.9,0.5,1.7,0.5h10.3V48z M185.5,42.3V8.9h-12.9V8.3h26.5v0.6
		h-12.9v33.4C186.2,42.3,185.5,42.3,185.5,42.3z"/>
	<path class="st1" d="M237.1,55.5h-26.8c-1,0-1.7-0.2-2.2-0.7s-0.7-1.2-0.7-2.2v-7.5c0-0.5,0.1-1,0.2-1.4s0.4-0.7,0.7-0.9l7.6-6.4
		v-14h-5.6c-1,0-1.7-0.2-2.2-0.7s-0.7-1.2-0.7-2.2v-7.6c0-0.5,0.1-1,0.2-1.4s0.4-0.7,0.7-0.9l8.1-6.9c0.2-0.2,0.5-0.3,0.9-0.4
		c0.4-0.1,0.7-0.2,1.2-0.2h26.8c1,0,1.7,0.2,2.2,0.7s0.7,1.2,0.7,2.2v7.6c0,0.5-0.1,1-0.2,1.4s-0.4,0.7-0.7,0.9l-7.5,6.3v14.2h5.5
		c1,0,1.7,0.2,2.2,0.7s0.7,1.2,0.7,2.2v7.5c0,0.5-0.1,1-0.2,1.4s-0.4,0.7-0.7,0.9l-8.2,6.8c-0.2,0.2-0.4,0.3-0.8,0.4
		C237.9,55.4,237.5,55.5,237.1,55.5z M218.4,48h26.8c0.8,0,1.4-0.2,1.7-0.5c0.4-0.4,0.5-0.9,0.5-1.7v-7.5c0-0.8-0.2-1.4-0.5-1.7
		c-0.4-0.4-0.9-0.5-1.7-0.5h-6.1V14.8h6.1c0.8,0,1.4-0.2,1.7-0.5c0.4-0.4,0.5-0.9,0.5-1.7V4.9c0-0.8-0.2-1.4-0.5-1.7
		c-0.4-0.4-0.9-0.5-1.7-0.5h-26.8c-0.8,0-1.4,0.2-1.7,0.5c-0.4,0.4-0.5,0.9-0.5,1.7v7.6c0,0.8,0.2,1.4,0.5,1.7
		c0.4,0.4,0.9,0.5,1.7,0.5h6.2V36h-6.2c-0.8,0-1.4,0.2-1.7,0.5c-0.4,0.4-0.5,0.9-0.5,1.7v7.5c0,0.8,0.2,1.4,0.5,1.7
		C217,47.8,217.6,48,218.4,48z M241.9,42.3h-20v-0.6h9.8V8.9h-9.8V8.3h20v0.6h-9.6v32.8h9.6V42.3z"/>
	<path class="st1" d="M265.5,55.5h-9.8c-1,0-1.7-0.2-2.2-0.7s-0.7-1.2-0.7-2.2V11.8c0-0.5,0.1-1,0.2-1.4s0.4-0.7,0.7-0.9l8.1-6.9
		c0.2-0.2,0.5-0.3,0.9-0.4c0.4-0.1,0.7-0.2,1.2-0.2h19.3c3,0,5.5,0.3,7.5,0.9s3.6,1.5,4.8,2.6c1.2,1.1,2,2.5,2.5,4.1
		s0.7,3.3,0.7,5.2V23c0,2-0.3,3.9-0.9,5.5c-0.6,1.7-1.5,3.1-2.9,4.3l-8.2,6.8c-1.1,0.9-2.4,1.6-4.1,2.2c-1.7,0.6-3.7,0.9-6.1,1v3
		c0,0.5-0.1,1-0.2,1.4s-0.4,0.7-0.7,0.9l-8.2,6.8c-0.2,0.2-0.4,0.3-0.8,0.4S265.9,55.5,265.5,55.5z M273.6,48c0.8,0,1.4-0.2,1.7-0.5
		c0.4-0.4,0.5-0.9,0.5-1.7V35.3h7.2c5.7,0,9.6-1.1,11.7-3.4s3.1-5.2,3.1-8.9v-8.1c0-3.7-1-6.6-3.1-8.9s-6-3.4-11.7-3.4h-19.3
		c-0.8,0-1.4,0.2-1.7,0.5c-0.4,0.4-0.5,0.9-0.5,1.7v40.8c0,0.8,0.2,1.4,0.5,1.7c0.4,0.4,0.9,0.5,1.7,0.5h9.9V48z M282.2,29.9h-13
		v12.4h-0.6v-34h13.6c2,0,3.6,0.2,4.8,0.7c1.2,0.4,2.2,1,2.9,1.8c0.7,0.8,1.1,1.7,1.4,2.7c0.3,1.1,0.4,2.2,0.4,3.4v4.7
		c0,1.2-0.1,2.3-0.4,3.4c-0.3,1-0.7,1.9-1.4,2.6c-0.7,0.7-1.6,1.3-2.9,1.7C285.8,29.7,284.2,29.9,282.2,29.9z M269.3,29.3h13
		c1.8,0,3.3-0.2,4.5-0.6s2-0.9,2.7-1.6c0.6-0.7,1.1-1.5,1.3-2.5c0.2-0.9,0.3-2,0.3-3.1v-4.7c0-1.1-0.1-2.2-0.3-3.1
		c-0.2-1-0.7-1.8-1.3-2.5c-0.6-0.7-1.5-1.3-2.7-1.7s-2.7-0.6-4.5-0.6h-13V29.3z M275.7,14.4h5.7c1.2,0,2,0.3,2.4,0.9
		c0.4,0.6,0.6,1.3,0.6,2.1v3.3c0,0.8-0.2,1.5-0.6,2.1s-1.2,0.9-2.4,0.9h-5.7V14.4z"/>
</g>
</svg>
